<svg width="190" height="65" viewBox="0 0 190 65" fill="none" xmlns="http://www.w3.org/2000/svg">
<path d="M51.925 34.7812C51.7792 34.9062 51.5396 35.1146 51.2063 35.4062C50.8938 35.6771 50.5292 35.9583 50.1125 36.25C49.7167 36.5208 49.2896 36.7396 48.8313 36.9062C48.3938 37.0729 47.9771 37.0938 47.5813 36.9688C47.4146 36.9062 47.2792 36.8125 47.175 36.6875C47.0917 36.5625 47.0292 36.4271 46.9875 36.2812C46.9667 36.1146 46.9563 35.9479 46.9563 35.7812C46.9771 35.6146 47.0083 35.4583 47.05 35.3125L52.7375 32.0625V22.8438C52.7375 22.6562 52.8521 22.5208 53.0813 22.4375C53.3104 22.3333 53.5604 22.2812 53.8313 22.2812C54.1021 22.2812 54.3521 22.3333 54.5813 22.4375C54.8104 22.5208 54.925 22.6562 54.925 22.8438V30.4375C55.8 29.9792 56.6542 29.4167 57.4875 28.75C58.3417 28.0625 59.0708 27.3542 59.675 26.625C60.3 25.875 60.7479 25.1458 61.0188 24.4375C61.2896 23.7292 61.2896 23.1146 61.0188 22.5938C60.7479 22.0521 60.1438 21.6562 59.2063 21.4062C58.2896 21.1354 56.9458 21.0729 55.175 21.2188C54.8 21.2604 54.3208 21.375 53.7375 21.5625C53.1542 21.75 52.5188 21.9792 51.8313 22.25C51.1438 22.5208 50.4354 22.8021 49.7063 23.0938C48.9979 23.3854 48.3208 23.6562 47.675 23.9062C47.0292 24.1354 46.4563 24.3125 45.9563 24.4375C45.4563 24.5417 45.0917 24.5521 44.8625 24.4688C44.925 24.1146 45.0708 23.8021 45.3 23.5312C45.5292 23.2396 45.8 22.9792 46.1125 22.75C46.4458 22.5208 46.7896 22.3229 47.1438 22.1562C47.4979 21.9896 47.8313 21.8542 48.1438 21.75C49.4146 21.3333 50.5083 20.9792 51.425 20.6875C52.3417 20.3958 53.2375 20.1771 54.1125 20.0312C55.0083 19.8854 55.9563 19.8229 56.9563 19.8438C57.9563 19.8438 59.175 19.9375 60.6125 20.125C61.7792 20.4167 62.5813 20.8125 63.0188 21.3125C63.4771 21.8125 63.675 22.375 63.6125 23C63.55 23.625 63.2896 24.2917 62.8313 25C62.3729 25.6875 61.8104 26.3854 61.1438 27.0938C60.4979 27.7812 59.7896 28.4583 59.0188 29.125C58.2688 29.7917 57.5708 30.3958 56.925 30.9375C56.2792 31.4792 55.7375 31.9479 55.3 32.3438C54.8833 32.7396 54.6646 33.0104 54.6438 33.1562L53.55 42.9062L53.3625 43.1562C53.2583 43.3021 53.1229 43.4583 52.9563 43.625C52.8104 43.7708 52.6333 43.8958 52.425 44C52.2375 44.1042 52.0708 44.1042 51.925 44V34.7812ZM65.6213 43.4688C65.1629 43.1771 64.8192 42.7292 64.59 42.125C64.3817 41.5 64.2254 40.8542 64.1213 40.1875C64.0379 39.5 63.9963 38.8646 63.9963 38.2812V36.9688C63.9963 36.7396 64.0067 36.2812 64.0275 35.5938C64.0483 34.8854 64.0796 34.0729 64.1213 33.1562C64.1629 32.2188 64.2046 31.2292 64.2463 30.1875C64.2879 29.125 64.3296 28.1354 64.3713 27.2188C64.4129 26.2812 64.4442 25.4688 64.465 24.7812C64.5067 24.0938 64.5275 23.6354 64.5275 23.4062C64.5275 23.0938 64.5275 22.5521 64.5275 21.7812C64.5483 21.0104 64.5588 20.1979 64.5588 19.3438C64.5588 18.4688 64.5483 17.6458 64.5275 16.875C64.5275 16.1042 64.5275 15.5625 64.5275 15.25C64.84 15.0208 65.1108 14.8646 65.34 14.7812C65.5483 14.6979 65.7358 14.6875 65.9025 14.75C66.0692 14.7917 66.1525 14.9583 66.1525 15.25V40.75C66.1525 40.8958 66.1942 41.0729 66.2775 41.2812C66.3817 41.4688 66.5067 41.6354 66.6525 41.7812C66.7983 41.9271 66.965 42.0208 67.1525 42.0625C67.3608 42.0833 67.5692 42 67.7775 41.8125L71.5588 38.5938C71.6629 39.0729 71.6525 39.5729 71.5275 40.0938C71.4025 40.6146 71.1942 41.1042 70.9025 41.5625C70.6317 42.0208 70.2879 42.4375 69.8713 42.8125C69.4546 43.1875 69.0067 43.4792 68.5275 43.6875C68.0483 43.875 67.5588 43.9688 67.0588 43.9688C66.5588 43.9479 66.0796 43.7812 65.6213 43.4688ZM71.3488 43.4688C70.9321 42.5938 70.7029 41.7083 70.6613 40.8125C70.6404 39.9167 70.6925 39 70.8175 38.0625C70.8383 37.7708 70.8904 37.3333 70.9738 36.75C71.0571 36.1667 71.1508 35.5208 71.255 34.8125C71.3592 34.1042 71.4738 33.3542 71.5988 32.5625C71.7238 31.7708 71.8383 31.0208 71.9425 30.3125C72.0467 29.6042 72.1404 28.9792 72.2238 28.4375C72.3279 27.875 72.4008 27.4583 72.4425 27.1875C72.6092 26.3125 72.7863 25.5729 72.9738 24.9688C73.1821 24.3438 73.4529 23.8646 73.7863 23.5312C74.1404 23.1979 74.5883 23.0208 75.13 23C75.6925 22.9792 76.4113 23.1146 77.2863 23.4062C77.3904 23.4271 77.505 23.5104 77.63 23.6562C77.755 23.7812 77.8279 23.875 77.8488 23.9375C77.8904 24.2083 77.9633 24.625 78.0675 25.1875C78.1925 25.75 78.3279 26.3958 78.4738 27.125C78.6196 27.8333 78.7654 28.5833 78.9113 29.375C79.0779 30.1458 79.2342 30.8958 79.38 31.625C79.5258 32.3333 79.6508 32.9688 79.755 33.5312C79.88 34.0938 79.9738 34.5104 80.0363 34.7812C80.3488 36.2604 80.7342 37.2917 81.1925 37.875C81.6508 38.4375 82.1404 38.7292 82.6613 38.75C83.1821 38.7708 83.7133 38.6042 84.255 38.25C84.8175 37.875 85.3696 37.4896 85.9113 37.0938C86.4529 36.6771 86.9633 36.3229 87.4425 36.0312C87.9217 35.7396 88.3383 35.6875 88.6925 35.875C88.6925 36.2708 88.5988 36.6562 88.4113 37.0312C88.2238 37.4062 87.9946 37.7604 87.7238 38.0938C87.4738 38.4062 87.1925 38.6979 86.88 38.9688C86.5675 39.2396 86.2758 39.4688 86.005 39.6562C84.8383 40.4271 83.8592 40.8333 83.0675 40.875C82.2967 40.9167 81.6404 40.7396 81.0988 40.3438C80.5571 39.9479 80.1196 39.4062 79.7863 38.7188C79.4529 38.0312 79.1508 37.3333 78.88 36.625C78.63 35.9167 78.38 35.2917 78.13 34.75C77.9008 34.1875 77.6196 33.8333 77.2863 33.6875C77.2238 33.9583 77.0883 34.4271 76.88 35.0938C76.6925 35.7604 76.4842 36.4688 76.255 37.2188C76.0258 37.9688 75.8071 38.6771 75.5988 39.3438C75.3904 40.0104 75.2446 40.4792 75.1613 40.75C75.1196 40.8542 75.0258 41.0521 74.88 41.3438C74.755 41.6354 74.5883 41.9583 74.38 42.3125C74.1717 42.6458 73.9321 42.9792 73.6613 43.3125C73.4113 43.625 73.1508 43.8646 72.88 44.0312C72.6092 44.2188 72.3383 44.2812 72.0675 44.2188C71.7967 44.1562 71.5571 43.9062 71.3488 43.4688ZM72.9738 34.25C72.9321 34.5 72.9008 34.9583 72.88 35.625C72.88 36.2917 72.88 37 72.88 37.75C72.88 38.5 72.88 39.2083 72.88 39.875C72.9008 40.5417 72.9321 41.0104 72.9738 41.2812C73.7029 40.1771 74.3592 38.8958 74.9425 37.4375C75.5258 35.9583 75.9633 34.4375 76.255 32.875C76.5675 31.2917 76.6925 29.7292 76.63 28.1875C76.5675 26.625 76.255 25.2083 75.6925 23.9375C75.3383 24.5833 75.005 25.3958 74.6925 26.375C74.38 27.3542 74.1092 28.3542 73.88 29.375C73.6508 30.375 73.4529 31.3229 73.2863 32.2188C73.1404 33.0938 73.0363 33.7708 72.9738 34.25ZM87.0763 43.4688C87.0971 43.1979 87.1075 42.7292 87.1075 42.0625V37.8125C87.1075 37.1458 87.0971 36.6771 87.0763 36.4062C87.0554 36.2812 87.0138 36.0104 86.9513 35.5938C86.9096 35.1771 86.8471 34.6875 86.7638 34.125C86.7013 33.5625 86.6283 32.9688 86.545 32.3438C86.4617 31.7188 86.3783 31.125 86.295 30.5625C86.2117 30 86.1388 29.5104 86.0763 29.0938C86.0346 28.6771 86.0033 28.3958 85.9825 28.25C85.9408 27.9583 85.92 27.6562 85.92 27.3438C85.9408 27.0312 86.0033 26.7604 86.1075 26.5312C86.2117 26.3021 86.3783 26.1458 86.6075 26.0625C86.8367 25.9583 87.17 25.9792 87.6075 26.125C87.6283 26.5625 87.6596 27.0833 87.7013 27.6875C87.7638 28.2708 87.8367 28.8854 87.92 29.5312C88.0033 30.1771 88.1075 30.8125 88.2325 31.4375C88.3575 32.0625 88.5138 32.6354 88.7013 33.1562C88.9721 32.3854 89.2325 31.7083 89.4825 31.125C89.7533 30.5208 90.0554 29.9688 90.3888 29.4688C90.7221 28.9688 91.0971 28.5 91.5138 28.0625C91.9304 27.6042 92.4304 27.1354 93.0138 26.6562C93.7429 26.0521 94.3471 25.8125 94.8263 25.9375C95.3263 26.0417 95.7325 26.3958 96.045 27C96.3783 27.5833 96.6492 28.3438 96.8575 29.2812C97.0658 30.2188 97.2533 31.2188 97.42 32.2812C97.5867 33.3229 97.7533 34.3542 97.92 35.375C98.1075 36.375 98.3367 37.25 98.6075 38C98.8783 38.7292 99.2117 39.2708 99.6075 39.625C100.024 39.9583 100.545 39.9688 101.17 39.6562C101.358 40.2188 101.378 40.6354 101.233 40.9062C101.108 41.1562 100.878 41.3021 100.545 41.3438C100.233 41.3646 99.8575 41.2812 99.42 41.0938C98.9825 40.8854 98.545 40.6146 98.1075 40.2812C97.6908 39.9271 97.3158 39.5104 96.9825 39.0312C96.6492 38.5521 96.42 38.0417 96.295 37.5C96.2117 37.125 96.1388 36.5104 96.0763 35.6562C96.0138 34.8021 95.92 33.8854 95.795 32.9062C95.67 31.9271 95.4721 30.9688 95.2013 30.0312C94.9513 29.0729 94.5867 28.3125 94.1075 27.75L91.92 29.875C91.8575 29.9583 91.7013 30.3333 91.4513 31C91.2221 31.6667 90.9617 32.4375 90.67 33.3125C90.3783 34.1667 90.0971 35.0417 89.8263 35.9375C89.5554 36.8125 89.3575 37.5208 89.2325 38.0625C89.1908 38.25 89.1388 38.6042 89.0763 39.125C89.0138 39.625 88.9513 40.1667 88.8888 40.75C88.8263 41.3333 88.7742 41.8854 88.7325 42.4062C88.7117 42.9062 88.7013 43.2604 88.7013 43.4688C88.5138 43.8438 88.2429 44.0312 87.8888 44.0312C87.5346 44.0312 87.2638 43.8438 87.0763 43.4688ZM108.71 41.8125C108.252 41.0417 107.898 40.1771 107.648 39.2188C107.398 38.2396 107.22 37.2396 107.116 36.2188C107.012 35.1979 106.96 34.1875 106.96 33.1875C106.981 32.1875 107.012 31.2708 107.054 30.4375C106.762 30.3542 106.429 30.375 106.054 30.5C105.679 30.625 105.283 30.7917 104.866 31C104.45 31.1875 104.023 31.3958 103.585 31.625C103.148 31.8542 102.741 32.0208 102.366 32.125C101.991 32.2292 101.648 32.25 101.335 32.1875C101.023 32.125 100.773 31.9062 100.585 31.5312C100.398 31.1771 100.408 30.8958 100.616 30.6875C100.845 30.4792 101.168 30.3229 101.585 30.2188C102.023 30.0938 102.523 30.0104 103.085 29.9688C103.648 29.9062 104.179 29.8333 104.679 29.75C105.179 29.6667 105.606 29.5625 105.96 29.4375C106.314 29.2917 106.502 29.0833 106.523 28.8125L107.616 16.9062C107.637 16.7188 107.731 16.5729 107.898 16.4688C108.085 16.3646 108.273 16.3125 108.46 16.3125C108.668 16.3125 108.845 16.3646 108.991 16.4688C109.158 16.5521 109.241 16.6979 109.241 16.9062V27.1875C109.533 27.25 109.814 27.25 110.085 27.1875C110.356 27.1042 110.627 27.0104 110.898 26.9062C111.168 26.8021 111.429 26.7188 111.679 26.6562C111.95 26.5938 112.231 26.5938 112.523 26.6562C112.648 26.8854 112.627 27.1042 112.46 27.3125C112.293 27.5 112.127 27.6458 111.96 27.75L111.398 28.0938C111.148 28.2396 110.877 28.4062 110.585 28.5938C110.314 28.7604 110.043 28.9167 109.773 29.0625C109.523 29.2083 109.345 29.3021 109.241 29.3438C109.22 29.6354 109.2 30.1458 109.179 30.875C109.179 31.5833 109.179 32.3438 109.179 33.1562C109.179 33.9688 109.179 34.7396 109.179 35.4688C109.2 36.1771 109.22 36.6771 109.241 36.9688C109.325 37.9479 109.512 38.8438 109.804 39.6562C110.095 40.4688 110.491 41.1042 110.991 41.5625C111.491 42.0208 112.085 42.25 112.773 42.25C113.481 42.25 114.304 41.9271 115.241 41.2812C115.387 41.7604 115.377 42.1875 115.21 42.5625C115.043 42.9375 114.773 43.2396 114.398 43.4688C114.023 43.6771 113.575 43.8125 113.054 43.875C112.533 43.9375 112.002 43.9062 111.46 43.7812C110.939 43.6562 110.429 43.4375 109.929 43.125C109.429 42.7917 109.023 42.3542 108.71 41.8125ZM113.25 21.2188C113.25 21.1562 113.292 21.0938 113.375 21.0312C113.458 20.9688 113.552 20.9062 113.656 20.8438C113.781 20.7812 113.906 20.7396 114.031 20.7188C114.156 20.6771 114.26 20.6667 114.344 20.6875C114.427 20.7083 114.531 20.7708 114.656 20.875C114.781 20.9583 114.896 21.0521 115 21.1562C115.125 21.2604 115.229 21.375 115.312 21.5C115.396 21.6042 115.438 21.6875 115.438 21.75V39.0938C115.688 38.7812 116.104 38.5729 116.688 38.4688C117.292 38.3438 118 38.2604 118.812 38.2188C119.625 38.1771 120.51 38.1562 121.469 38.1562C122.448 38.1354 123.438 38.0833 124.438 38C125.438 37.8958 126.417 37.7292 127.375 37.5C128.354 37.25 129.25 36.8854 130.062 36.4062C130.833 35.9479 131.354 35.7188 131.625 35.7188C131.917 35.6979 132.021 35.8229 131.938 36.0938C131.854 36.3646 131.604 36.7188 131.188 37.1562C130.771 37.5938 130.25 38.0312 129.625 38.4688C129.021 38.9062 128.333 39.2917 127.562 39.625C126.792 39.9583 126 40.1458 125.188 40.1875C124.979 40.2083 124.667 40.2188 124.25 40.2188C123.833 40.2188 123.354 40.2292 122.812 40.25C122.271 40.25 121.708 40.25 121.125 40.25C120.542 40.2292 119.979 40.2188 119.438 40.2188H118C117.583 40.2188 117.271 40.2083 117.062 40.1875C116.812 40.375 116.552 40.6979 116.281 41.1562C116.031 41.5938 115.75 42.0208 115.438 42.4375C115.146 42.8542 114.823 43.1875 114.469 43.4375C114.115 43.6875 113.708 43.6979 113.25 43.4688V21.2188ZM135.259 42.375C134.738 41.6042 134.425 40.75 134.321 39.8125C134.217 38.8542 134.217 37.8542 134.321 36.8125C134.425 35.7708 134.592 34.7188 134.821 33.6562C135.05 32.5938 135.248 31.5729 135.415 30.5938C135.582 29.5938 135.675 28.6667 135.696 27.8125C135.717 26.9375 135.571 26.1875 135.259 25.5625C135.092 25.2292 134.863 25.0729 134.571 25.0938C134.3 25.0938 133.998 25.1354 133.665 25.2188C133.353 25.2812 133.03 25.3021 132.696 25.2812C132.384 25.2604 132.103 25.0625 131.853 24.6875C131.873 24.6042 131.957 24.5 132.103 24.375C132.228 24.2292 132.321 24.1458 132.384 24.125C134.259 23.8542 135.821 24.0521 137.071 24.7188C138.342 25.3646 139.353 26.2917 140.103 27.5C140.853 28.6875 141.363 30.0521 141.634 31.5938C141.925 33.1354 142.03 34.6667 141.946 36.1875C141.863 37.7083 141.623 39.125 141.228 40.4375C140.832 41.7292 140.332 42.7292 139.728 43.4375C139.123 44.1458 138.436 44.4583 137.665 44.375C136.894 44.2917 136.092 43.625 135.259 42.375ZM136.884 41.2812C136.905 41.3438 136.967 41.4271 137.071 41.5312C137.175 41.6354 137.28 41.75 137.384 41.875C137.509 42 137.623 42.1146 137.728 42.2188C137.832 42.3021 137.905 42.3542 137.946 42.375C138.717 41.9375 139.29 41.3438 139.665 40.5938C140.04 39.8438 140.259 39.0104 140.321 38.0938C140.405 37.1771 140.363 36.2188 140.196 35.2188C140.05 34.1979 139.832 33.2188 139.54 32.2812C139.248 31.3438 138.905 30.4792 138.509 29.6875C138.134 28.8958 137.769 28.25 137.415 27.75C137.394 28.0208 137.353 28.4375 137.29 29C137.228 29.5625 137.165 30.1979 137.103 30.9062C137.04 31.6146 136.967 32.3646 136.884 33.1562C136.8 33.9479 136.717 34.7083 136.634 35.4375C136.571 36.1458 136.509 36.7812 136.446 37.3438C136.384 37.9062 136.342 38.3229 136.321 38.5938C136.3 38.8021 136.3 39.0417 136.321 39.3125C136.363 39.5625 136.415 39.8125 136.478 40.0625C136.54 40.3125 136.603 40.5521 136.665 40.7812C136.748 40.9896 136.821 41.1562 136.884 41.2812ZM144.33 33.1562C144.268 32.9896 144.132 32.6979 143.924 32.2812L143.268 30.9688C143.038 30.5104 142.809 30.0833 142.58 29.6875C142.372 29.2708 142.226 28.9792 142.143 28.8125C142.205 28.5833 142.34 28.4167 142.549 28.3125C142.757 28.2083 142.976 28.1667 143.205 28.1875C143.434 28.1875 143.653 28.2396 143.861 28.3438C144.09 28.4479 144.247 28.6042 144.33 28.8125L148.643 38.5938L152.455 25.0312L152.611 24.8125C152.736 24.6458 152.872 24.4896 153.018 24.3438C153.184 24.1771 153.361 24.0417 153.549 23.9375C153.736 23.8333 153.913 23.8333 154.08 23.9375C154.122 24.0208 154.143 24.2083 154.143 24.5C154.143 24.7708 154.122 24.9479 154.08 25.0312C154.038 25.1979 153.903 25.5938 153.674 26.2188C153.465 26.8438 153.236 27.5312 152.986 28.2812C152.736 29.0104 152.507 29.6979 152.299 30.3438C152.09 30.9688 151.965 31.3646 151.924 31.5312C151.882 31.6979 151.809 32.0521 151.705 32.5938C151.622 33.1146 151.528 33.7292 151.424 34.4375C151.32 35.1458 151.205 35.8958 151.08 36.6875C150.955 37.4792 150.83 38.2292 150.705 38.9375C150.601 39.6458 150.507 40.2604 150.424 40.7812C150.34 41.3021 150.288 41.6458 150.268 41.8125C150.226 42.0625 150.153 42.3333 150.049 42.625C149.965 42.9167 149.84 43.1875 149.674 43.4375C149.507 43.6667 149.288 43.8438 149.018 43.9688C148.768 44.0938 148.465 44.1042 148.111 44C148.028 43.7292 147.882 43.3125 147.674 42.75C147.486 42.1667 147.268 41.5208 147.018 40.8125C146.768 40.1042 146.507 39.3542 146.236 38.5625C145.965 37.7708 145.705 37.0208 145.455 36.3125C145.205 35.6042 144.976 34.9688 144.768 34.4062C144.58 33.8438 144.434 33.4271 144.33 33.1562ZM160.714 43.4688C159.839 42.7812 159.141 41.9792 158.62 41.0625C158.12 40.125 157.735 39.125 157.464 38.0625C157.339 38.1667 157.151 38.2812 156.901 38.4062C156.651 38.5312 156.391 38.6354 156.12 38.7188C155.87 38.8021 155.62 38.8646 155.37 38.9062C155.12 38.9271 154.933 38.8958 154.808 38.8125C154.703 38.7292 154.672 38.5938 154.714 38.4062C154.776 38.1979 154.974 37.8958 155.308 37.5C155.349 37.4375 155.474 37.3021 155.683 37.0938C155.912 36.8854 156.151 36.6667 156.401 36.4375C156.651 36.1875 156.88 35.9583 157.089 35.75C157.297 35.5208 157.422 35.375 157.464 35.3125C157.693 34.7917 157.828 34.2188 157.87 33.5938C157.933 32.9688 157.964 32.3229 157.964 31.6562C157.985 30.9688 158.026 30.2917 158.089 29.625C158.151 28.9583 158.308 28.3333 158.558 27.75C158.703 27.4167 158.974 27.0104 159.37 26.5312C159.787 26.0312 160.245 25.5521 160.745 25.0938C161.266 24.6354 161.787 24.2292 162.308 23.875C162.849 23.5 163.308 23.2708 163.683 23.1875C164.078 23.1042 164.36 23.1979 164.526 23.4688C164.714 23.7396 164.714 24.2604 164.526 25.0312C164.297 25.9479 163.943 26.8438 163.464 27.7188C163.005 28.5729 162.526 29.4271 162.026 30.2812C161.526 31.1146 161.047 31.9479 160.589 32.7812C160.151 33.6146 159.839 34.4583 159.651 35.3125C159.547 35.7708 159.495 36.3333 159.495 37C159.495 37.6458 159.568 38.2917 159.714 38.9375C159.86 39.5833 160.099 40.1771 160.433 40.7188C160.766 41.2396 161.224 41.6042 161.808 41.8125C162.474 42.0625 163.141 42.125 163.808 42C164.474 41.875 165.12 41.6354 165.745 41.2812C166.391 40.9271 167.005 40.4896 167.589 39.9688C168.172 39.4271 168.714 38.875 169.214 38.3125C169.714 37.75 170.162 37.2083 170.558 36.6875C170.953 36.1458 171.287 35.6875 171.558 35.3125L172.089 35.875C172.235 36 172.141 36.3542 171.808 36.9375C171.495 37.5208 171.026 38.1875 170.401 38.9375C169.797 39.6667 169.078 40.4167 168.245 41.1875C167.412 41.9583 166.547 42.6042 165.651 43.125C164.776 43.6458 163.901 43.9688 163.026 44.0938C162.172 44.2188 161.401 44.0104 160.714 43.4688ZM159.651 29.875C159.63 29.9792 159.61 30.1667 159.589 30.4375C159.589 30.6875 159.589 30.9583 159.589 31.25C159.589 31.5417 159.589 31.8125 159.589 32.0625C159.61 32.3125 159.63 32.4896 159.651 32.5938C160.318 31.4479 160.943 30.2292 161.526 28.9375C162.11 27.6458 162.568 26.3438 162.901 25.0312C162.422 25.1979 161.985 25.4583 161.589 25.8125C161.214 26.1458 160.891 26.5417 160.62 27C160.349 27.4375 160.13 27.9062 159.964 28.4062C159.818 28.9062 159.714 29.3958 159.651 29.875ZM172.723 43.6562C172.389 44.3438 172.108 44.6875 171.879 44.6875C171.65 44.7083 171.452 44.4792 171.285 44C171.139 43.5417 171.014 42.8854 170.91 42.0312C170.827 41.1771 170.764 40.2292 170.723 39.1875C170.702 38.1458 170.702 37.0521 170.723 35.9062C170.743 34.7604 170.775 33.6562 170.816 32.5938C170.879 31.5312 170.952 30.5625 171.035 29.6875C171.118 28.7917 171.202 28.0938 171.285 27.5938C171.389 27.0729 171.493 26.7917 171.598 26.75C171.702 26.7083 171.806 26.9896 171.91 27.5938C172.577 27.0938 173.295 26.625 174.066 26.1875C174.837 25.7292 175.629 25.3542 176.441 25.0625C177.275 24.75 178.108 24.5521 178.941 24.4688C179.795 24.3854 180.618 24.4583 181.41 24.6875C181.493 24.9583 181.504 25.2708 181.441 25.625C181.379 25.9792 181.181 26.2083 180.848 26.3125C180.514 26.25 180.077 26.2188 179.535 26.2188C178.993 26.2188 178.42 26.2604 177.816 26.3438C177.212 26.4271 176.608 26.5625 176.004 26.75C175.4 26.9375 174.848 27.1875 174.348 27.5C173.868 27.7917 173.473 28.1562 173.16 28.5938C172.868 29.0104 172.723 29.5104 172.723 30.0938V43.6562ZM184.231 43.4688C184.044 43.1146 183.992 42.7396 184.075 42.3438C184.158 41.9271 184.325 41.5417 184.575 41.1875C184.825 40.8333 185.127 40.5312 185.481 40.2812C185.835 40.0104 186.2 39.8542 186.575 39.8125C186.971 39.7708 187.346 39.8646 187.7 40.0938C188.054 40.3021 188.346 40.6979 188.575 41.2812C188.721 41.6354 188.731 41.9896 188.606 42.3438C188.502 42.6771 188.315 42.9792 188.044 43.25C187.773 43.5 187.45 43.7188 187.075 43.9062C186.7 44.0729 186.325 44.1771 185.95 44.2188C185.596 44.2604 185.252 44.2188 184.919 44.0938C184.606 43.9896 184.377 43.7812 184.231 43.4688Z" fill="#131814"/>
<path d="M13.0177 44.2715C-3.76901 35.5323 -0.0838613 17.5003 3.85705 9.57665C24.3043 14.3643 21.9995 34.5758 18.2912 44.083C8.30629 30.6433 9.0768 22.6561 8.19261 27.4635C7.48527 31.3094 11.1146 40.2713 13.0177 44.2715Z" fill="#BED579"/>
<g clip-path="url(#clip0_4_926)">
<path d="M17.2881 38.9537C27.7478 38.9537 28.5905 27.5125 28.6578 22.0753C28.6585 21.9274 28.636 21.7809 28.5918 21.6443C28.5476 21.5078 28.4825 21.384 28.4004 21.2804C28.3183 21.1768 28.2209 21.0954 28.1139 21.041C28.007 20.9866 27.8926 20.9604 27.7776 20.9638C12.9131 21.3148 12.9131 30.5803 12.9131 38.9537V43.4537" stroke="#3D713C" stroke-width="2" stroke-linecap="round" stroke-linejoin="round"/>
<path d="M12.9131 38.9543C12.9131 38.9543 12.9131 32.2043 19.9131 31.0793" stroke="#3D713C" stroke-width="2" stroke-linecap="round" stroke-linejoin="round"/>
</g>
<defs>
<clipPath id="clip0_4_926">
<rect width="21" height="27" fill="white" transform="translate(12 19.9997)"/>
</clipPath>
</defs>
</svg>
