<svg width="214" height="58" viewBox="0 0 214 58" fill="none" xmlns="http://www.w3.org/2000/svg">
<path d="M12.5391 36.3359C12.5911 35.2943 12.6172 34.2005 12.6172 33.0547C12.6432 31.8828 12.6302 30.7109 12.5781 29.5391C12.526 28.3672 12.4349 27.2083 12.3047 26.0625C12.2005 24.8906 12.0443 23.7839 11.8359 22.7422C11.4714 20.8411 11.0026 19.3958 10.4297 18.4062C9.88281 17.3906 9.29688 16.8568 8.67188 16.8047C8.07292 16.7266 7.5 17.1302 6.95312 18.0156C6.43229 18.875 6.02865 20.2292 5.74219 22.0781C5.6901 22.3646 5.625 22.8073 5.54688 23.4062C5.46875 24.0052 5.3776 24.6823 5.27344 25.4375C5.19531 26.1927 5.10417 27 5 27.8594C4.92188 28.6927 4.83073 29.487 4.72656 30.2422C4.64844 30.9974 4.58333 31.6745 4.53125 32.2734C4.47917 32.8724 4.4401 33.3151 4.41406 33.6016C4.25781 34.0182 3.95833 34.2656 3.51562 34.3438C3.09896 34.4219 2.70833 34.3958 2.34375 34.2656L1.01562 13.9531C0.989583 13.6146 1.06771 13.3281 1.25 13.0938C1.43229 12.8333 1.64062 12.6641 1.875 12.5859C2.10938 12.4818 2.34375 12.4818 2.57812 12.5859C2.8125 12.6901 2.96875 12.9245 3.04688 13.2891L4.41406 19.3438C5.22135 17.3906 5.96354 16.0104 6.64062 15.2031C7.34375 14.3698 7.99479 13.9401 8.59375 13.9141C9.19271 13.888 9.76562 14.1745 10.3125 14.7734C10.8594 15.3724 11.3672 16.1016 11.8359 16.9609C12.3307 17.7943 12.7995 18.6927 13.2422 19.6562C13.6849 20.5938 14.1276 21.401 14.5703 22.0781C15.638 18.4062 16.849 15.763 18.2031 14.1484C19.5833 12.5078 20.8984 11.8307 22.1484 12.1172C23.4245 12.4036 24.5443 13.6276 25.5078 15.7891C26.4714 17.9245 27.1094 20.9323 27.4219 24.8125C27.474 25.4115 27.513 26.2057 27.5391 27.1953C27.5651 28.1589 27.5781 29.1094 27.5781 30.0469C27.5781 30.9844 27.5651 31.8047 27.5391 32.5078C27.513 33.1849 27.474 33.5495 27.4219 33.6016L26.7578 34.2656L25.3906 32.9375C25.5469 31.5833 25.5859 30.1771 25.5078 28.7188C25.4557 27.2344 25.3125 25.75 25.0781 24.2656C24.8698 22.7812 24.6094 21.3359 24.2969 19.9297C23.9844 18.5234 23.6719 17.2083 23.3594 15.9844C22.9948 14.9427 22.5521 14.3438 22.0312 14.1875C21.5104 14.0052 20.9766 14.0964 20.4297 14.4609C19.9089 14.7995 19.4271 15.3203 18.9844 16.0234C18.5417 16.7005 18.2031 17.3646 17.9688 18.0156C17.8125 18.4062 17.6172 18.9271 17.3828 19.5781C17.1745 20.2292 16.9661 20.8802 16.7578 21.5312C16.5495 22.1823 16.3672 22.7552 16.2109 23.25C16.0547 23.7448 15.9635 24.0312 15.9375 24.1094C15.8333 24.5781 15.7031 25.3854 15.5469 26.5312C15.4167 27.6771 15.2734 28.901 15.1172 30.2031C14.987 31.5052 14.8698 32.7422 14.7656 33.9141C14.6615 35.0599 14.5964 35.8672 14.5703 36.3359C14.5703 36.7266 14.4661 36.9479 14.2578 37C14.0495 37.0521 13.8151 37.026 13.5547 36.9219C13.2682 36.8177 12.9297 36.6224 12.5391 36.3359ZM33.0859 34.9688C32.4349 34.0052 32.0443 32.9375 31.9141 31.7656C31.7839 30.5677 31.7839 29.3177 31.9141 28.0156C32.0443 26.7135 32.2526 25.3984 32.5391 24.0703C32.8255 22.7422 33.0729 21.4661 33.2812 20.2422C33.4896 18.9922 33.6068 17.8333 33.6328 16.7656C33.6589 15.6719 33.4766 14.7344 33.0859 13.9531C32.8776 13.5365 32.5911 13.3411 32.2266 13.3672C31.888 13.3672 31.5104 13.4193 31.0938 13.5234C30.7031 13.6016 30.2995 13.6276 29.8828 13.6016C29.4922 13.5755 29.1406 13.3281 28.8281 12.8594C28.8542 12.7552 28.9583 12.625 29.1406 12.4688C29.2969 12.2865 29.4141 12.1823 29.4922 12.1562C31.8359 11.8177 33.7891 12.0651 35.3516 12.8984C36.9401 13.7057 38.2031 14.8646 39.1406 16.375C40.0781 17.8594 40.7161 19.5651 41.0547 21.4922C41.4193 23.4193 41.5495 25.3333 41.4453 27.2344C41.3411 29.1354 41.0417 30.9062 40.5469 32.5469C40.0521 34.1615 39.4271 35.4115 38.6719 36.2969C37.9167 37.1823 37.0573 37.5729 36.0938 37.4688C35.1302 37.3646 34.1276 36.5312 33.0859 34.9688ZM35.1172 33.6016C35.1432 33.6797 35.2214 33.7839 35.3516 33.9141C35.4818 34.0443 35.612 34.1875 35.7422 34.3438C35.8984 34.5 36.0417 34.6432 36.1719 34.7734C36.3021 34.8776 36.3932 34.9427 36.4453 34.9688C37.4089 34.4219 38.125 33.6797 38.5938 32.7422C39.0625 31.8047 39.3359 30.763 39.4141 29.6172C39.5182 28.4714 39.4661 27.2734 39.2578 26.0234C39.0755 24.7474 38.8021 23.5234 38.4375 22.3516C38.0729 21.1797 37.6432 20.099 37.1484 19.1094C36.6797 18.1198 36.224 17.3125 35.7812 16.6875C35.7552 17.026 35.7031 17.5469 35.625 18.25C35.5469 18.9531 35.4688 19.7474 35.3906 20.6328C35.3125 21.5182 35.2214 22.4557 35.1172 23.4453C35.013 24.4349 34.9089 25.3854 34.8047 26.2969C34.7266 27.1823 34.6484 27.9766 34.5703 28.6797C34.4922 29.3828 34.4401 29.9036 34.4141 30.2422C34.388 30.5026 34.388 30.8021 34.4141 31.1406C34.4661 31.4531 34.5312 31.7656 34.6094 32.0781C34.6875 32.3906 34.7656 32.6901 34.8438 32.9766C34.9479 33.237 35.0391 33.4453 35.1172 33.6016ZM45.625 36.3359C45 35.8672 44.5312 35.2161 44.2188 34.3828C43.9323 33.5234 43.776 32.7292 43.75 32C43.75 31.2448 43.8542 30.6719 44.0625 30.2812C44.2708 29.8646 44.5573 29.8516 44.9219 30.2422C44.8698 31.6484 45.1302 32.7161 45.7031 33.4453C46.276 34.1745 46.9661 34.6302 47.7734 34.8125C48.6068 34.9948 49.4792 34.9427 50.3906 34.6562C51.3281 34.3698 52.1224 33.9271 52.7734 33.3281C53.4505 32.7031 53.9062 31.9479 54.1406 31.0625C54.401 30.1771 54.2708 29.2266 53.75 28.2109C53.0729 27.4557 52.3047 26.7266 51.4453 26.0234C50.612 25.2943 49.7656 24.5781 48.9062 23.875C48.0469 23.1719 47.2135 22.4557 46.4062 21.7266C45.599 20.9714 44.8828 20.1771 44.2578 19.3438C44.2057 19.2917 44.1797 19.1875 44.1797 19.0312C44.1797 18.849 44.2057 18.7318 44.2578 18.6797C44.4401 18.4453 44.7005 18.0807 45.0391 17.5859C45.3776 17.0911 45.7682 16.5312 46.2109 15.9062C46.6536 15.2812 47.1224 14.6302 47.6172 13.9531C48.112 13.25 48.5807 12.5859 49.0234 11.9609C49.4661 11.3359 49.8568 10.776 50.1953 10.2812C50.5599 9.78646 50.8333 9.42188 51.0156 9.1875C51.3802 8.71875 51.7448 8.44531 52.1094 8.36719C52.5 8.28906 53.0469 8.34115 53.75 8.52344C53.724 8.6276 53.6198 8.86198 53.4375 9.22656C53.2552 9.5651 53.125 9.78646 53.0469 9.89062C52.8385 10.2031 52.4479 10.75 51.875 11.5312C51.3021 12.2865 50.6901 13.1068 50.0391 13.9922C49.388 14.8516 48.776 15.6719 48.2031 16.4531C47.6302 17.2083 47.2266 17.7292 46.9922 18.0156C46.7839 18.3281 46.862 18.6927 47.2266 19.1094C47.5911 19.526 48.112 19.9948 48.7891 20.5156C49.4661 21.0365 50.2344 21.6224 51.0938 22.2734C51.9531 22.8984 52.7604 23.5755 53.5156 24.3047C54.2969 25.0339 54.9479 25.8151 55.4688 26.6484C56.0156 27.4818 56.3021 28.3802 56.3281 29.3438C56.3802 30.2812 56.1068 31.2708 55.5078 32.3125C54.9349 33.3542 53.8932 34.4609 52.3828 35.6328C51.9141 35.9974 51.3932 36.3099 50.8203 36.5703C50.2734 36.8307 49.7005 37 49.1016 37.0781C48.5026 37.1823 47.9036 37.1823 47.3047 37.0781C46.7057 36.974 46.1458 36.7266 45.625 36.3359ZM68.3203 34.2656C67.7474 33.3021 67.3047 32.2214 66.9922 31.0234C66.6797 29.7995 66.4583 28.5495 66.3281 27.2734C66.1979 25.9974 66.1328 24.7344 66.1328 23.4844C66.1589 22.2344 66.1979 21.0885 66.25 20.0469C65.8854 19.9427 65.4688 19.9688 65 20.125C64.5312 20.2812 64.0365 20.4896 63.5156 20.75C62.9948 20.9844 62.4609 21.2448 61.9141 21.5312C61.3672 21.8177 60.8594 22.026 60.3906 22.1562C59.9219 22.2865 59.4922 22.3125 59.1016 22.2344C58.7109 22.1562 58.3984 21.8828 58.1641 21.4141C57.9297 20.9714 57.9427 20.6198 58.2031 20.3594C58.4896 20.099 58.8932 19.9036 59.4141 19.7734C59.9609 19.6172 60.5859 19.513 61.2891 19.4609C61.9922 19.3828 62.6562 19.2917 63.2812 19.1875C63.9062 19.0833 64.4401 18.9531 64.8828 18.7969C65.3255 18.6146 65.5599 18.3542 65.5859 18.0156L66.9531 3.13281C66.9792 2.89844 67.0964 2.71615 67.3047 2.58594C67.5391 2.45573 67.7734 2.39062 68.0078 2.39062C68.2682 2.39062 68.4896 2.45573 68.6719 2.58594C68.8802 2.6901 68.9844 2.8724 68.9844 3.13281V15.9844C69.349 16.0625 69.7005 16.0625 70.0391 15.9844C70.3776 15.8802 70.7161 15.763 71.0547 15.6328C71.3932 15.5026 71.7188 15.3984 72.0312 15.3203C72.3698 15.2422 72.7214 15.2422 73.0859 15.3203C73.2422 15.6068 73.2161 15.8802 73.0078 16.1406C72.7995 16.375 72.5911 16.5573 72.3828 16.6875L71.6797 17.1172C71.3672 17.2995 71.0286 17.5078 70.6641 17.7422C70.3255 17.9505 69.987 18.1458 69.6484 18.3281C69.3359 18.5104 69.1146 18.6276 68.9844 18.6797C68.9583 19.0443 68.9323 19.6823 68.9062 20.5938C68.9062 21.4792 68.9062 22.4297 68.9062 23.4453C68.9062 24.4609 68.9062 25.4245 68.9062 26.3359C68.9323 27.2214 68.9583 27.8464 68.9844 28.2109C69.0885 29.4349 69.3229 30.5547 69.6875 31.5703C70.0521 32.5859 70.5469 33.3802 71.1719 33.9531C71.7969 34.526 72.5391 34.8125 73.3984 34.8125C74.2839 34.8125 75.3125 34.4089 76.4844 33.6016C76.6667 34.2005 76.6536 34.7344 76.4453 35.2031C76.237 35.6719 75.8984 36.0495 75.4297 36.3359C74.9609 36.5964 74.401 36.7656 73.75 36.8438C73.099 36.9219 72.4349 36.8828 71.7578 36.7266C71.1068 36.5703 70.4688 36.2969 69.8438 35.9062C69.2188 35.4896 68.7109 34.9427 68.3203 34.2656ZM97.5781 56.6484C97.0573 56.3099 96.6276 55.776 96.2891 55.0469C95.9505 54.3438 95.6771 53.5885 95.4688 52.7812C95.2604 51.974 95.1042 51.1797 95 50.3984C94.9219 49.6172 94.8698 48.9922 94.8438 48.5234C94.7396 46.2839 94.7005 43.9141 94.7266 41.4141C94.7786 38.9401 95.013 36.4792 95.4297 34.0312C95.8464 31.5573 96.4844 29.1875 97.3438 26.9219C98.2292 24.6302 99.4401 22.5599 100.977 20.7109C101.784 19.7474 102.565 18.875 103.32 18.0938C104.102 17.2865 104.909 16.5703 105.742 15.9453C106.602 15.3203 107.513 14.7865 108.477 14.3438C109.466 13.875 110.573 13.5104 111.797 13.25C112.917 13.0156 113.763 13.1328 114.336 13.6016C114.935 14.0703 115.326 14.7734 115.508 15.7109C115.69 16.6224 115.69 17.7161 115.508 18.9922C115.326 20.2422 115.013 21.5443 114.57 22.8984C114.128 24.2266 113.581 25.5286 112.93 26.8047C112.305 28.0807 111.628 29.2005 110.898 30.1641C110.169 31.1276 109.414 31.8828 108.633 32.4297C107.852 32.9505 107.096 33.1198 106.367 32.9375C106.263 32.7552 106.38 32.3255 106.719 31.6484C107.057 30.9714 107.5 30.138 108.047 29.1484C108.62 28.1589 109.232 27.0651 109.883 25.8672C110.56 24.6432 111.159 23.4062 111.68 22.1562C112.227 20.9062 112.643 19.6823 112.93 18.4844C113.242 17.2865 113.32 16.2188 113.164 15.2812C113.086 14.8646 112.852 14.6172 112.461 14.5391C112.07 14.4609 111.641 14.474 111.172 14.5781C110.729 14.6823 110.299 14.8125 109.883 14.9688C109.466 15.125 109.206 15.2292 109.102 15.2812C107.122 16.1406 105.404 17.3906 103.945 19.0312C102.513 20.6458 101.302 22.5078 100.312 24.6172C99.3229 26.7005 98.5417 28.9271 97.9688 31.2969C97.4219 33.6667 97.0312 35.9974 96.7969 38.2891C96.5625 40.6068 96.4714 42.8073 96.5234 44.8906C96.5755 47 96.7448 48.8099 97.0312 50.3203C97.3177 51.8568 97.6823 53.0156 98.125 53.7969C98.5677 54.6042 99.0625 54.8776 99.6094 54.6172C99.6615 54.5911 99.7656 54.487 99.9219 54.3047C100.104 54.1224 100.221 53.9922 100.273 53.9141C100.638 52.8203 100.938 51.6224 101.172 50.3203C101.406 49.0182 101.576 47.6641 101.68 46.2578C101.81 44.8516 101.888 43.4323 101.914 42C101.94 40.5677 101.94 39.1745 101.914 37.8203C101.888 36.4922 101.836 35.2292 101.758 34.0312C101.706 32.8333 101.654 31.7786 101.602 30.8672C101.523 30.6849 101.458 30.3464 101.406 29.8516C101.38 29.3568 101.354 28.8229 101.328 28.25C101.328 27.6771 101.341 27.1172 101.367 26.5703C101.419 25.9974 101.51 25.5677 101.641 25.2812C101.771 24.9948 101.94 24.8906 102.148 24.9688C102.357 25.0469 102.63 25.4245 102.969 26.1016C103.021 26.4401 103.073 27.026 103.125 27.8594C103.203 28.6927 103.281 29.5911 103.359 30.5547C103.438 31.4922 103.503 32.3776 103.555 33.2109C103.607 34.0443 103.633 34.6302 103.633 34.9688C103.659 35.3333 103.672 35.8411 103.672 36.4922C103.698 37.1172 103.711 37.7943 103.711 38.5234V43.0156C103.711 43.6927 103.698 44.2786 103.672 44.7734C103.672 45.2943 103.659 45.6328 103.633 45.7891C103.633 46.0234 103.568 46.4792 103.438 47.1562C103.333 47.8594 103.216 48.6016 103.086 49.3828C102.956 50.1901 102.812 50.9583 102.656 51.6875C102.5 52.4167 102.383 52.9375 102.305 53.25C102.148 53.7969 101.927 54.3568 101.641 54.9297C101.354 55.5026 101.003 55.9844 100.586 56.375C100.195 56.7656 99.7396 57 99.2188 57.0781C98.724 57.1823 98.1771 57.0391 97.5781 56.6484ZM120.508 34.9688C119.857 34.0052 119.466 32.9375 119.336 31.7656C119.206 30.5677 119.206 29.3177 119.336 28.0156C119.466 26.7135 119.674 25.3984 119.961 24.0703C120.247 22.7422 120.495 21.4661 120.703 20.2422C120.911 18.9922 121.029 17.8333 121.055 16.7656C121.081 15.6719 120.898 14.7344 120.508 13.9531C120.299 13.5365 120.013 13.3411 119.648 13.3672C119.31 13.3672 118.932 13.4193 118.516 13.5234C118.125 13.6016 117.721 13.6276 117.305 13.6016C116.914 13.5755 116.562 13.3281 116.25 12.8594C116.276 12.7552 116.38 12.625 116.562 12.4688C116.719 12.2865 116.836 12.1823 116.914 12.1562C119.258 11.8177 121.211 12.0651 122.773 12.8984C124.362 13.7057 125.625 14.8646 126.562 16.375C127.5 17.8594 128.138 19.5651 128.477 21.4922C128.841 23.4193 128.971 25.3333 128.867 27.2344C128.763 29.1354 128.464 30.9062 127.969 32.5469C127.474 34.1615 126.849 35.4115 126.094 36.2969C125.339 37.1823 124.479 37.5729 123.516 37.4688C122.552 37.3646 121.549 36.5312 120.508 34.9688ZM122.539 33.6016C122.565 33.6797 122.643 33.7839 122.773 33.9141C122.904 34.0443 123.034 34.1875 123.164 34.3438C123.32 34.5 123.464 34.6432 123.594 34.7734C123.724 34.8776 123.815 34.9427 123.867 34.9688C124.831 34.4219 125.547 33.6797 126.016 32.7422C126.484 31.8047 126.758 30.763 126.836 29.6172C126.94 28.4714 126.888 27.2734 126.68 26.0234C126.497 24.7474 126.224 23.5234 125.859 22.3516C125.495 21.1797 125.065 20.099 124.57 19.1094C124.102 18.1198 123.646 17.3125 123.203 16.6875C123.177 17.026 123.125 17.5469 123.047 18.25C122.969 18.9531 122.891 19.7474 122.812 20.6328C122.734 21.5182 122.643 22.4557 122.539 23.4453C122.435 24.4349 122.331 25.3854 122.227 26.2969C122.148 27.1823 122.07 27.9766 121.992 28.6797C121.914 29.3828 121.862 29.9036 121.836 30.2422C121.81 30.5026 121.81 30.8021 121.836 31.1406C121.888 31.4531 121.953 31.7656 122.031 32.0781C122.109 32.3906 122.188 32.6901 122.266 32.9766C122.37 33.237 122.461 33.4453 122.539 33.6016ZM133.047 56.6484C132.526 56.3099 132.096 55.776 131.758 55.0469C131.419 54.3438 131.146 53.5885 130.938 52.7812C130.729 51.974 130.573 51.1797 130.469 50.3984C130.391 49.6172 130.339 48.9922 130.312 48.5234C130.208 46.2839 130.169 43.9141 130.195 41.4141C130.247 38.9401 130.482 36.4792 130.898 34.0312C131.315 31.5573 131.953 29.1875 132.812 26.9219C133.698 24.6302 134.909 22.5599 136.445 20.7109C137.253 19.7474 138.034 18.875 138.789 18.0938C139.57 17.2865 140.378 16.5703 141.211 15.9453C142.07 15.3203 142.982 14.7865 143.945 14.3438C144.935 13.875 146.042 13.5104 147.266 13.25C148.385 13.0156 149.232 13.1328 149.805 13.6016C150.404 14.0703 150.794 14.7734 150.977 15.7109C151.159 16.6224 151.159 17.7161 150.977 18.9922C150.794 20.2422 150.482 21.5443 150.039 22.8984C149.596 24.2266 149.049 25.5286 148.398 26.8047C147.773 28.0807 147.096 29.2005 146.367 30.1641C145.638 31.1276 144.883 31.8828 144.102 32.4297C143.32 32.9505 142.565 33.1198 141.836 32.9375C141.732 32.7552 141.849 32.3255 142.188 31.6484C142.526 30.9714 142.969 30.138 143.516 29.1484C144.089 28.1589 144.701 27.0651 145.352 25.8672C146.029 24.6432 146.628 23.4062 147.148 22.1562C147.695 20.9062 148.112 19.6823 148.398 18.4844C148.711 17.2865 148.789 16.2188 148.633 15.2812C148.555 14.8646 148.32 14.6172 147.93 14.5391C147.539 14.4609 147.109 14.474 146.641 14.5781C146.198 14.6823 145.768 14.8125 145.352 14.9688C144.935 15.125 144.674 15.2292 144.57 15.2812C142.591 16.1406 140.872 17.3906 139.414 19.0312C137.982 20.6458 136.771 22.5078 135.781 24.6172C134.792 26.7005 134.01 28.9271 133.438 31.2969C132.891 33.6667 132.5 35.9974 132.266 38.2891C132.031 40.6068 131.94 42.8073 131.992 44.8906C132.044 47 132.214 48.8099 132.5 50.3203C132.786 51.8568 133.151 53.0156 133.594 53.7969C134.036 54.6042 134.531 54.8776 135.078 54.6172C135.13 54.5911 135.234 54.487 135.391 54.3047C135.573 54.1224 135.69 53.9922 135.742 53.9141C136.107 52.8203 136.406 51.6224 136.641 50.3203C136.875 49.0182 137.044 47.6641 137.148 46.2578C137.279 44.8516 137.357 43.4323 137.383 42C137.409 40.5677 137.409 39.1745 137.383 37.8203C137.357 36.4922 137.305 35.2292 137.227 34.0312C137.174 32.8333 137.122 31.7786 137.07 30.8672C136.992 30.6849 136.927 30.3464 136.875 29.8516C136.849 29.3568 136.823 28.8229 136.797 28.25C136.797 27.6771 136.81 27.1172 136.836 26.5703C136.888 25.9974 136.979 25.5677 137.109 25.2812C137.24 24.9948 137.409 24.8906 137.617 24.9688C137.826 25.0469 138.099 25.4245 138.438 26.1016C138.49 26.4401 138.542 27.026 138.594 27.8594C138.672 28.6927 138.75 29.5911 138.828 30.5547C138.906 31.4922 138.971 32.3776 139.023 33.2109C139.076 34.0443 139.102 34.6302 139.102 34.9688C139.128 35.3333 139.141 35.8411 139.141 36.4922C139.167 37.1172 139.18 37.7943 139.18 38.5234V43.0156C139.18 43.6927 139.167 44.2786 139.141 44.7734C139.141 45.2943 139.128 45.6328 139.102 45.7891C139.102 46.0234 139.036 46.4792 138.906 47.1562C138.802 47.8594 138.685 48.6016 138.555 49.3828C138.424 50.1901 138.281 50.9583 138.125 51.6875C137.969 52.4167 137.852 52.9375 137.773 53.25C137.617 53.7969 137.396 54.3568 137.109 54.9297C136.823 55.5026 136.471 55.9844 136.055 56.375C135.664 56.7656 135.208 57 134.688 57.0781C134.193 57.1823 133.646 57.0391 133.047 56.6484ZM154.062 34.9688C154.01 34.8646 153.945 34.6953 153.867 34.4609C153.789 34.2005 153.711 33.9271 153.633 33.6406C153.581 33.3281 153.529 33.0417 153.477 32.7812C153.424 32.5208 153.398 32.3385 153.398 32.2344V17.3125C153.398 17.0781 153.49 16.9089 153.672 16.8047C153.854 16.7005 154.062 16.6354 154.297 16.6094C154.531 16.5833 154.753 16.5833 154.961 16.6094C155.195 16.6354 155.352 16.6615 155.43 16.6875C155.404 17.026 155.391 17.5469 155.391 18.25C155.391 18.9531 155.378 19.7474 155.352 20.6328C155.352 21.5182 155.352 22.4557 155.352 23.4453C155.378 24.4349 155.391 25.3854 155.391 26.2969V28.6797C155.391 29.3828 155.404 29.9036 155.43 30.2422C155.482 31.7005 155.677 32.7161 156.016 33.2891C156.38 33.862 156.81 34.1354 157.305 34.1094C157.826 34.0573 158.359 33.7708 158.906 33.25C159.479 32.7031 160 32.0651 160.469 31.3359C160.964 30.5807 161.367 29.7995 161.68 28.9922C162.018 28.1849 162.188 27.4688 162.188 26.8438V16.6875H164.922C164.87 17.2865 164.805 18.0677 164.727 19.0312C164.648 19.9948 164.596 21.0365 164.57 22.1562C164.57 23.276 164.596 24.4219 164.648 25.5938C164.701 26.7396 164.818 27.8333 165 28.875C165.208 29.8906 165.495 30.7891 165.859 31.5703C166.224 32.3255 166.693 32.8724 167.266 33.2109C167.865 33.5234 168.581 33.5755 169.414 33.3672C170.247 33.1328 171.237 32.5339 172.383 31.5703C172.617 32.2474 172.526 32.8984 172.109 33.5234C171.693 34.1484 171.146 34.6953 170.469 35.1641C169.792 35.6328 169.062 35.9844 168.281 36.2188C167.5 36.4271 166.836 36.4661 166.289 36.3359C166.211 36.3099 166.081 36.2057 165.898 36.0234C165.742 35.8411 165.638 35.7109 165.586 35.6328C165.482 35.4505 165.299 35.112 165.039 34.6172C164.779 34.0964 164.505 33.5495 164.219 32.9766C163.932 32.4036 163.659 31.8568 163.398 31.3359C163.164 30.8151 162.995 30.4505 162.891 30.2422C162.734 30.5286 162.474 30.9714 162.109 31.5703C161.745 32.1432 161.302 32.7682 160.781 33.4453C160.286 34.0964 159.74 34.7214 159.141 35.3203C158.568 35.8932 157.982 36.3099 157.383 36.5703C156.784 36.8047 156.198 36.8307 155.625 36.6484C155.052 36.4401 154.531 35.8802 154.062 34.9688ZM172.617 36.3359C172.044 35.9714 171.615 35.4115 171.328 34.6562C171.068 33.875 170.872 33.0677 170.742 32.2344C170.638 31.375 170.586 30.5807 170.586 29.8516V28.2109C170.586 27.9245 170.599 27.3516 170.625 26.4922C170.651 25.6068 170.69 24.5911 170.742 23.4453C170.794 22.2734 170.846 21.0365 170.898 19.7344C170.951 18.4062 171.003 17.1693 171.055 16.0234C171.107 14.8516 171.146 13.8359 171.172 12.9766C171.224 12.1172 171.25 11.5443 171.25 11.2578C171.25 10.8672 171.25 10.1901 171.25 9.22656C171.276 8.26302 171.289 7.2474 171.289 6.17969C171.289 5.08594 171.276 4.05729 171.25 3.09375C171.25 2.13021 171.25 1.45312 171.25 1.0625C171.641 0.776042 171.979 0.580729 172.266 0.476562C172.526 0.372396 172.76 0.359375 172.969 0.4375C173.177 0.489583 173.281 0.697917 173.281 1.0625V32.9375C173.281 33.1198 173.333 33.3411 173.438 33.6016C173.568 33.8359 173.724 34.0443 173.906 34.2266C174.089 34.4089 174.297 34.526 174.531 34.5781C174.792 34.6042 175.052 34.5 175.312 34.2656L180.039 30.2422C180.169 30.8411 180.156 31.4661 180 32.1172C179.844 32.7682 179.583 33.3802 179.219 33.9531C178.88 34.526 178.451 35.0469 177.93 35.5156C177.409 35.9844 176.849 36.349 176.25 36.6094C175.651 36.8438 175.039 36.9609 174.414 36.9609C173.789 36.9349 173.19 36.7266 172.617 36.3359ZM180.977 36.3359C180.456 35.2422 180.169 34.1354 180.117 33.0156C180.091 31.8958 180.156 30.75 180.312 29.5781C180.339 29.2135 180.404 28.6667 180.508 27.9375C180.612 27.2083 180.729 26.401 180.859 25.5156C180.99 24.6302 181.133 23.6927 181.289 22.7031C181.445 21.7135 181.589 20.776 181.719 19.8906C181.849 19.0052 181.966 18.224 182.07 17.5469C182.201 16.8438 182.292 16.3229 182.344 15.9844C182.552 14.8906 182.773 13.9661 183.008 13.2109C183.268 12.4297 183.607 11.8307 184.023 11.4141C184.466 10.9974 185.026 10.776 185.703 10.75C186.406 10.724 187.305 10.8932 188.398 11.2578C188.529 11.2839 188.672 11.388 188.828 11.5703C188.984 11.7266 189.076 11.8438 189.102 11.9219C189.154 12.2604 189.245 12.7812 189.375 13.4844C189.531 14.1875 189.701 14.9948 189.883 15.9062C190.065 16.7917 190.247 17.7292 190.43 18.7188C190.638 19.6823 190.833 20.6198 191.016 21.5312C191.198 22.4167 191.354 23.2109 191.484 23.9141C191.641 24.6172 191.758 25.138 191.836 25.4766C192.227 27.3255 192.708 28.6146 193.281 29.3438C193.854 30.0469 194.466 30.4115 195.117 30.4375C195.768 30.4635 196.432 30.2552 197.109 29.8125C197.812 29.3438 198.503 28.862 199.18 28.3672C199.857 27.8464 200.495 27.4036 201.094 27.0391C201.693 26.6745 202.214 26.6094 202.656 26.8438C202.656 27.3385 202.539 27.8203 202.305 28.2891C202.07 28.7578 201.784 29.2005 201.445 29.6172C201.133 30.0078 200.781 30.3724 200.391 30.7109C200 31.0495 199.635 31.3359 199.297 31.5703C197.839 32.5339 196.615 33.0417 195.625 33.0938C194.661 33.1458 193.841 32.9245 193.164 32.4297C192.487 31.9349 191.94 31.2578 191.523 30.3984C191.107 29.5391 190.729 28.6667 190.391 27.7812C190.078 26.8958 189.766 26.1146 189.453 25.4375C189.167 24.7344 188.815 24.2917 188.398 24.1094C188.32 24.4479 188.151 25.0339 187.891 25.8672C187.656 26.7005 187.396 27.5859 187.109 28.5234C186.823 29.4609 186.549 30.3464 186.289 31.1797C186.029 32.013 185.846 32.599 185.742 32.9375C185.69 33.0677 185.573 33.3151 185.391 33.6797C185.234 34.0443 185.026 34.4479 184.766 34.8906C184.505 35.3073 184.206 35.724 183.867 36.1406C183.555 36.5312 183.229 36.8307 182.891 37.0391C182.552 37.2734 182.214 37.3516 181.875 37.2734C181.536 37.1953 181.237 36.8828 180.977 36.3359ZM183.008 24.8125C182.956 25.125 182.917 25.6979 182.891 26.5312C182.891 27.3646 182.891 28.25 182.891 29.1875C182.891 30.125 182.891 31.0104 182.891 31.8438C182.917 32.6771 182.956 33.263 183.008 33.6016C183.919 32.2214 184.74 30.6198 185.469 28.7969C186.198 26.9479 186.745 25.0469 187.109 23.0938C187.5 21.1146 187.656 19.1615 187.578 17.2344C187.5 15.2812 187.109 13.5104 186.406 11.9219C185.964 12.7292 185.547 13.7448 185.156 14.9688C184.766 16.1927 184.427 17.4427 184.141 18.7188C183.854 19.9688 183.607 21.1536 183.398 22.2734C183.216 23.3672 183.086 24.2135 183.008 24.8125ZM202.969 36.5703C202.552 37.4297 202.201 37.8594 201.914 37.8594C201.628 37.8854 201.38 37.599 201.172 37C200.99 36.4271 200.833 35.6068 200.703 34.5391C200.599 33.4714 200.521 32.2865 200.469 30.9844C200.443 29.6823 200.443 28.3151 200.469 26.8828C200.495 25.4505 200.534 24.0703 200.586 22.7422C200.664 21.4141 200.755 20.2031 200.859 19.1094C200.964 17.9896 201.068 17.1172 201.172 16.4922C201.302 15.8411 201.432 15.4896 201.562 15.4375C201.693 15.3854 201.823 15.737 201.953 16.4922C202.786 15.8672 203.685 15.2812 204.648 14.7344C205.612 14.1615 206.602 13.6927 207.617 13.3281C208.659 12.9375 209.701 12.6901 210.742 12.5859C211.81 12.4818 212.839 12.5729 213.828 12.8594C213.932 13.1979 213.945 13.5885 213.867 14.0312C213.789 14.474 213.542 14.7604 213.125 14.8906C212.708 14.8125 212.161 14.7734 211.484 14.7734C210.807 14.7734 210.091 14.8255 209.336 14.9297C208.581 15.0339 207.826 15.2031 207.07 15.4375C206.315 15.6719 205.625 15.9844 205 16.375C204.401 16.7396 203.906 17.1953 203.516 17.7422C203.151 18.263 202.969 18.888 202.969 19.6172V36.5703Z" fill="#24331C"/>
</svg>
