<svg width="235" height="50" viewBox="0 0 235 50" fill="none" xmlns="http://www.w3.org/2000/svg">
<path d="M11.7531 33.0195C11.5161 33.2227 11.1268 33.5612 10.5852 34.0352C10.0773 34.4753 9.4849 34.9323 8.80782 35.4062C8.16459 35.8464 7.47058 36.2018 6.72578 36.4727C6.01485 36.7435 5.33776 36.7773 4.69453 36.5742C4.4237 36.4727 4.20365 36.3203 4.03438 36.1172C3.89896 35.9141 3.7974 35.694 3.72969 35.457C3.69584 35.1862 3.67891 34.9154 3.67891 34.6445C3.71276 34.3737 3.76354 34.1198 3.83125 33.8828L13.0734 28.6016V13.6211C13.0734 13.3164 13.2596 13.0964 13.632 12.9609C14.0044 12.7917 14.4107 12.707 14.8508 12.707C15.2909 12.707 15.6971 12.7917 16.0695 12.9609C16.4419 13.0964 16.6281 13.3164 16.6281 13.6211V25.9609C18.05 25.2161 19.438 24.3021 20.7922 23.2188C22.1802 22.1016 23.3651 20.9505 24.3469 19.7656C25.3625 18.5469 26.0904 17.362 26.5305 16.2109C26.9706 15.0599 26.9706 14.0612 26.5305 13.2148C26.0904 12.3346 25.1086 11.6914 23.5852 11.2852C22.0956 10.8451 19.912 10.7435 17.0344 10.9805C16.425 11.0482 15.6464 11.2344 14.6984 11.5391C13.7505 11.8438 12.718 12.2161 11.6008 12.6562C10.4836 13.0964 9.33256 13.5534 8.14766 14.0273C6.99662 14.5013 5.89636 14.9414 4.84688 15.3477C3.7974 15.7201 2.86641 16.0078 2.05391 16.2109C1.24141 16.3802 0.648961 16.3971 0.276566 16.2617C0.378128 15.6862 0.615107 15.1784 0.987503 14.7383C1.3599 14.2643 1.8 13.8411 2.30782 13.4688C2.84948 13.0964 3.40808 12.7747 3.9836 12.5039C4.55912 12.2331 5.10078 12.013 5.6086 11.8438C7.6737 11.1667 9.45104 10.5911 10.9406 10.1172C12.4302 9.64323 13.8859 9.28776 15.3078 9.05078C16.7635 8.8138 18.3039 8.71224 19.9289 8.74609C21.5539 8.74609 23.5344 8.89844 25.8703 9.20312C27.7661 9.67708 29.0695 10.3203 29.7805 11.1328C30.5253 11.9453 30.8469 12.8594 30.7453 13.875C30.6438 14.8906 30.2206 15.974 29.4758 17.125C28.731 18.2422 27.8169 19.3763 26.7336 20.5273C25.6841 21.6445 24.5331 22.7448 23.2805 23.8281C22.0617 24.9115 20.9276 25.8932 19.8781 26.7734C18.8286 27.6536 17.9484 28.4154 17.2375 29.0586C16.5604 29.7018 16.205 30.1419 16.1711 30.3789L14.3938 46.2227L14.0891 46.6289C13.9198 46.8659 13.6997 47.1198 13.4289 47.3906C13.1919 47.6276 12.9042 47.8307 12.5656 48C12.2609 48.1693 11.9901 48.1693 11.7531 48V33.0195ZM34.0095 47.1367C33.2647 46.6628 32.7061 45.9349 32.3338 44.9531C31.9952 43.9375 31.7413 42.888 31.572 41.8047C31.4366 40.6875 31.3689 39.6549 31.3689 38.707V36.5742C31.3689 36.2018 31.3858 35.457 31.4197 34.3398C31.4535 33.1888 31.5043 31.8685 31.572 30.3789C31.6397 28.8555 31.7075 27.2474 31.7752 25.5547C31.8429 23.8281 31.9106 22.2201 31.9783 20.7305C32.046 19.207 32.0968 17.8867 32.1306 16.7695C32.1983 15.6523 32.2322 14.9076 32.2322 14.5352C32.2322 14.0273 32.2322 13.1471 32.2322 11.8945C32.266 10.6419 32.283 9.32161 32.283 7.93359C32.283 6.51172 32.266 5.17448 32.2322 3.92188C32.2322 2.66927 32.2322 1.78906 32.2322 1.28125C32.74 0.908854 33.1801 0.654948 33.5525 0.519531C33.891 0.384115 34.1957 0.367188 34.4666 0.46875C34.7374 0.536458 34.8728 0.807292 34.8728 1.28125V42.7188C34.8728 42.9557 34.9405 43.2435 35.0759 43.582C35.2452 43.8867 35.4483 44.1576 35.6853 44.3945C35.9223 44.6315 36.1931 44.7839 36.4978 44.8516C36.8364 44.8854 37.1749 44.75 37.5134 44.4453L43.658 39.2148C43.8272 39.9935 43.8103 40.806 43.6072 41.6523C43.4041 42.4987 43.0655 43.2943 42.5916 44.0391C42.1515 44.7839 41.5929 45.4609 40.9158 46.0703C40.2387 46.6797 39.5108 47.1536 38.7322 47.4922C37.9535 47.7969 37.158 47.9492 36.3455 47.9492C35.533 47.9154 34.7543 47.6445 34.0095 47.1367ZM43.3167 47.1367C42.6396 45.7148 42.2672 44.276 42.1995 42.8203C42.1657 41.3646 42.2503 39.875 42.4534 38.3516C42.4873 37.8776 42.5719 37.1667 42.7073 36.2188C42.8428 35.2708 42.9951 34.2214 43.1644 33.0703C43.3336 31.9193 43.5198 30.7005 43.723 29.4141C43.9261 28.1276 44.1123 26.9089 44.2816 25.7578C44.4508 24.6068 44.6032 23.5911 44.7386 22.7109C44.9079 21.7969 45.0264 21.1198 45.0941 20.6797C45.3649 19.2578 45.6527 18.056 45.9573 17.0742C46.2959 16.0586 46.736 15.2799 47.2777 14.7383C47.8532 14.1966 48.581 13.9089 49.4613 13.875C50.3753 13.8411 51.5433 14.0612 52.9652 14.5352C53.1344 14.569 53.3206 14.7044 53.5238 14.9414C53.7269 15.1445 53.8454 15.2969 53.8792 15.3984C53.9469 15.8385 54.0654 16.5156 54.2347 17.4297C54.4378 18.3438 54.6579 19.3932 54.8948 20.5781C55.1318 21.7292 55.3688 22.9479 55.6058 24.2344C55.8766 25.487 56.1305 26.7057 56.3675 27.8906C56.6045 29.0417 56.8076 30.0742 56.9769 30.9883C57.18 31.9023 57.3323 32.5794 57.4339 33.0195C57.9417 35.4232 58.568 37.099 59.3128 38.0469C60.0576 38.9609 60.8532 39.4349 61.6995 39.4688C62.5459 39.5026 63.4092 39.2318 64.2894 38.6562C65.2034 38.0469 66.1006 37.4206 66.9808 36.7773C67.861 36.1003 68.6904 35.5247 69.4691 35.0508C70.2477 34.5768 70.9248 34.4922 71.5003 34.7969C71.5003 35.4401 71.348 36.0664 71.0433 36.6758C70.7386 37.2852 70.3662 37.8607 69.9261 38.4023C69.5198 38.9102 69.0628 39.3841 68.555 39.8242C68.0472 40.2643 67.5732 40.6367 67.1331 40.9414C65.2373 42.194 63.6461 42.8542 62.3597 42.9219C61.1071 42.9896 60.0407 42.7018 59.1605 42.0586C58.2803 41.4154 57.5693 40.5352 57.0277 39.418C56.486 38.3008 55.9951 37.1667 55.555 36.0156C55.1488 34.8646 54.7425 33.849 54.3363 32.9688C53.9639 32.0547 53.5068 31.4792 52.9652 31.2422C52.8636 31.6823 52.6435 32.444 52.305 33.5273C52.0003 34.6107 51.6618 35.7617 51.2894 36.9805C50.917 38.1992 50.5615 39.3503 50.223 40.4336C49.8844 41.5169 49.6475 42.2786 49.512 42.7188C49.4443 42.888 49.292 43.2096 49.055 43.6836C48.8519 44.1576 48.581 44.6823 48.2425 45.2578C47.904 45.7995 47.5146 46.3411 47.0745 46.8828C46.6683 47.3906 46.2451 47.7799 45.805 48.0508C45.3649 48.3555 44.9248 48.457 44.4847 48.3555C44.0446 48.2539 43.6553 47.8477 43.3167 47.1367ZM45.9573 32.1562C45.8896 32.5625 45.8389 33.3073 45.805 34.3906C45.805 35.474 45.805 36.625 45.805 37.8438C45.805 39.0625 45.805 40.2135 45.805 41.2969C45.8389 42.3802 45.8896 43.1419 45.9573 43.582C47.1422 41.7878 48.2086 39.7057 49.1566 37.3359C50.1045 34.9323 50.8154 32.4609 51.2894 29.9219C51.7972 27.349 52.0003 24.8099 51.8988 22.3047C51.7972 19.7656 51.2894 17.4635 50.3753 15.3984C49.7998 16.4479 49.2581 17.7682 48.7503 19.3594C48.2425 20.9505 47.8024 22.5755 47.43 24.2344C47.0576 25.8594 46.736 27.3997 46.4652 28.8555C46.2282 30.2773 46.0589 31.3776 45.9573 32.1562ZM68.8739 47.1367C68.9078 46.6966 68.9247 45.9349 68.9247 44.8516V37.9453C68.9247 36.862 68.9078 36.1003 68.8739 35.6602C68.8401 35.457 68.7723 35.0169 68.6708 34.3398C68.6031 33.6628 68.5015 32.8672 68.3661 31.9531C68.2645 31.0391 68.146 30.0742 68.0106 29.0586C67.8752 28.043 67.7398 27.0781 67.6044 26.1641C67.469 25.25 67.3505 24.4544 67.2489 23.7773C67.1812 23.1003 67.1304 22.6432 67.0966 22.4062C67.0289 21.9323 66.995 21.4414 66.995 20.9336C67.0289 20.4258 67.1304 19.9857 67.2997 19.6133C67.469 19.2409 67.7398 18.987 68.1122 18.8516C68.4846 18.6823 69.0263 18.7161 69.7372 18.9531C69.771 19.6641 69.8218 20.5104 69.8895 21.4922C69.9911 22.4401 70.1096 23.4388 70.245 24.4883C70.3804 25.5378 70.5497 26.5703 70.7528 27.5859C70.9559 28.6016 71.2098 29.5326 71.5145 30.3789C71.9546 29.1263 72.3778 28.026 72.7841 27.0781C73.2242 26.0964 73.7151 25.1992 74.2567 24.3867C74.7984 23.5742 75.4078 22.8125 76.0848 22.1016C76.7619 21.3568 77.5744 20.5951 78.5223 19.8164C79.7072 18.8346 80.689 18.4453 81.4677 18.6484C82.2802 18.8177 82.9403 19.3932 83.4481 20.375C83.9898 21.3229 84.4299 22.5586 84.7684 24.082C85.107 25.6055 85.4117 27.2305 85.6825 28.957C85.9533 30.6497 86.2242 32.3255 86.495 33.9844C86.7997 35.6094 87.1721 37.0312 87.6122 38.25C88.0523 39.4349 88.594 40.3151 89.2372 40.8906C89.9143 41.4323 90.7606 41.4492 91.7763 40.9414C92.0809 41.8555 92.1148 42.5326 91.8778 42.9727C91.6747 43.3789 91.3023 43.6159 90.7606 43.6836C90.2528 43.7174 89.6434 43.582 88.9325 43.2773C88.2216 42.9388 87.5106 42.4987 86.7997 41.957C86.1226 41.3815 85.5132 40.7044 84.9716 39.9258C84.4299 39.1471 84.0575 38.3177 83.8544 37.4375C83.719 36.8281 83.6005 35.8294 83.4989 34.4414C83.3973 33.0534 83.245 31.5638 83.0419 29.9727C82.8388 28.3815 82.5171 26.8242 82.077 25.3008C81.6708 23.7435 81.0783 22.5078 80.2997 21.5938L76.745 25.0469C76.6434 25.1823 76.3895 25.7917 75.9833 26.875C75.6109 27.9583 75.1877 29.2109 74.7138 30.6328C74.2398 32.0208 73.7828 33.4427 73.3427 34.8984C72.9026 36.3203 72.5809 37.4714 72.3778 38.3516C72.3101 38.6562 72.2255 39.2318 72.1239 40.0781C72.0223 40.8906 71.9208 41.7708 71.8192 42.7188C71.7177 43.6667 71.633 44.5638 71.5653 45.4102C71.5315 46.2227 71.5145 46.7982 71.5145 47.1367C71.2098 47.7461 70.7697 48.0508 70.1942 48.0508C69.6187 48.0508 69.1786 47.7461 68.8739 47.1367ZM104.029 44.4453C103.284 43.1927 102.708 41.7878 102.302 40.2305C101.896 38.6393 101.608 37.0143 101.439 35.3555C101.27 33.6966 101.185 32.0547 101.185 30.4297C101.219 28.8047 101.27 27.3151 101.337 25.9609C100.863 25.8255 100.322 25.8594 99.7123 26.0625C99.103 26.2656 98.4597 26.5365 97.7827 26.875C97.1056 27.1797 96.4116 27.5182 95.7006 27.8906C94.9897 28.263 94.3295 28.5339 93.7202 28.7031C93.1108 28.8724 92.5522 28.9062 92.0444 28.8047C91.5366 28.7031 91.1303 28.3477 90.8256 27.7383C90.5209 27.1628 90.5379 26.7057 90.8764 26.3672C91.2488 26.0286 91.7735 25.7747 92.4506 25.6055C93.1616 25.4023 93.9741 25.2669 94.8881 25.1992C95.8022 25.0977 96.6655 24.9792 97.478 24.8438C98.2905 24.7083 98.9845 24.5391 99.56 24.3359C100.136 24.099 100.44 23.7604 100.474 23.3203L102.251 3.97266C102.285 3.66797 102.438 3.43099 102.708 3.26172C103.013 3.09245 103.318 3.00781 103.623 3.00781C103.961 3.00781 104.249 3.09245 104.486 3.26172C104.757 3.39714 104.892 3.63411 104.892 3.97266V20.6797C105.366 20.7812 105.823 20.7812 106.263 20.6797C106.703 20.5443 107.143 20.3919 107.583 20.2227C108.024 20.0534 108.447 19.918 108.853 19.8164C109.293 19.7148 109.75 19.7148 110.224 19.8164C110.427 20.1888 110.393 20.5443 110.123 20.8828C109.852 21.1875 109.581 21.4245 109.31 21.5938L108.396 22.1523C107.99 22.3893 107.55 22.6602 107.076 22.9648C106.636 23.2357 106.195 23.4896 105.755 23.7266C105.349 23.9635 105.061 24.1159 104.892 24.1836C104.858 24.6576 104.824 25.487 104.79 26.6719C104.79 27.8229 104.79 29.0586 104.79 30.3789C104.79 31.6992 104.79 32.9518 104.79 34.1367C104.824 35.2878 104.858 36.1003 104.892 36.5742C105.027 38.1654 105.332 39.6211 105.806 40.9414C106.28 42.2617 106.923 43.2943 107.736 44.0391C108.548 44.7839 109.513 45.1562 110.63 45.1562C111.781 45.1562 113.119 44.6315 114.642 43.582C114.879 44.3607 114.862 45.0547 114.591 45.6641C114.32 46.2734 113.88 46.7643 113.271 47.1367C112.662 47.4753 111.934 47.6953 111.087 47.7969C110.241 47.8984 109.378 47.8477 108.498 47.6445C107.651 47.4414 106.822 47.0859 106.009 46.5781C105.197 46.0365 104.537 45.3255 104.029 44.4453ZM111.406 10.9805C111.406 10.8789 111.474 10.7773 111.609 10.6758C111.745 10.5742 111.897 10.4727 112.066 10.3711C112.27 10.2695 112.473 10.2018 112.676 10.168C112.879 10.1003 113.048 10.0833 113.184 10.1172C113.319 10.151 113.488 10.2526 113.691 10.4219C113.895 10.5573 114.081 10.7096 114.25 10.8789C114.453 11.0482 114.622 11.2344 114.758 11.4375C114.893 11.6068 114.961 11.7422 114.961 11.8438V40.0273C115.367 39.5195 116.044 39.181 116.992 39.0117C117.974 38.8086 119.125 38.6732 120.445 38.6055C121.766 38.5378 123.204 38.5039 124.762 38.5039C126.353 38.4701 127.961 38.3854 129.586 38.25C131.211 38.0807 132.802 37.8099 134.359 37.4375C135.951 37.0312 137.406 36.4388 138.727 35.6602C139.979 34.9154 140.826 34.543 141.266 34.543C141.74 34.5091 141.909 34.7122 141.773 35.1523C141.638 35.5924 141.232 36.168 140.555 36.8789C139.878 37.5898 139.031 38.3008 138.016 39.0117C137.034 39.7227 135.917 40.349 134.664 40.8906C133.411 41.4323 132.125 41.737 130.805 41.8047C130.466 41.8385 129.958 41.8555 129.281 41.8555C128.604 41.8555 127.826 41.8724 126.945 41.9062C126.065 41.9062 125.151 41.9062 124.203 41.9062C123.255 41.8724 122.341 41.8555 121.461 41.8555H119.125C118.448 41.8555 117.94 41.8385 117.602 41.8047C117.195 42.1094 116.772 42.6341 116.332 43.3789C115.926 44.0898 115.469 44.7839 114.961 45.4609C114.487 46.138 113.962 46.6797 113.387 47.0859C112.811 47.4922 112.151 47.5091 111.406 47.1367V10.9805ZM147.17 45.3594C146.324 44.1068 145.816 42.7188 145.647 41.1953C145.478 39.638 145.478 38.013 145.647 36.3203C145.816 34.6276 146.087 32.918 146.46 31.1914C146.832 29.4648 147.154 27.806 147.424 26.2148C147.695 24.5898 147.848 23.0833 147.881 21.6953C147.915 20.2734 147.678 19.0547 147.17 18.0391C146.9 17.4974 146.527 17.2435 146.053 17.2773C145.613 17.2773 145.122 17.3451 144.581 17.4805C144.073 17.582 143.548 17.6159 143.006 17.582C142.499 17.5482 142.042 17.2266 141.635 16.6172C141.669 16.4818 141.805 16.3125 142.042 16.1094C142.245 15.8724 142.397 15.737 142.499 15.7031C145.545 15.263 148.085 15.5846 150.116 16.668C152.181 17.7174 153.823 19.224 155.042 21.1875C156.26 23.1172 157.09 25.3346 157.53 27.8398C158.004 30.3451 158.173 32.8333 158.038 35.3047C157.902 37.776 157.513 40.0781 156.87 42.2109C156.226 44.3099 155.414 45.9349 154.432 47.0859C153.45 48.237 152.333 48.7448 151.081 48.6094C149.828 48.474 148.525 47.3906 147.17 45.3594ZM149.811 43.582C149.845 43.6836 149.947 43.819 150.116 43.9883C150.285 44.1576 150.454 44.3438 150.624 44.5469C150.827 44.75 151.013 44.9362 151.182 45.1055C151.351 45.2409 151.47 45.3255 151.538 45.3594C152.79 44.6484 153.721 43.6836 154.331 42.4648C154.94 41.2461 155.295 39.8919 155.397 38.4023C155.532 36.9128 155.465 35.3555 155.194 33.7305C154.957 32.0716 154.601 30.4805 154.128 28.957C153.654 27.4336 153.095 26.0286 152.452 24.7422C151.842 23.4557 151.25 22.4062 150.674 21.5938C150.641 22.0339 150.573 22.7109 150.471 23.625C150.37 24.5391 150.268 25.5716 150.167 26.7227C150.065 27.8737 149.947 29.0924 149.811 30.3789C149.676 31.6654 149.54 32.901 149.405 34.0859C149.303 35.237 149.202 36.2695 149.1 37.1836C148.999 38.0977 148.931 38.7747 148.897 39.2148C148.863 39.5534 148.863 39.9427 148.897 40.3828C148.965 40.7891 149.049 41.1953 149.151 41.6016C149.253 42.0078 149.354 42.3971 149.456 42.7695C149.591 43.1081 149.71 43.3789 149.811 43.582ZM161.911 30.3789C161.81 30.1081 161.59 29.6341 161.251 28.957L160.185 26.8242C159.812 26.0794 159.44 25.3854 159.068 24.7422C158.729 24.0651 158.492 23.5911 158.357 23.3203C158.458 22.9479 158.678 22.6771 159.017 22.5078C159.355 22.3385 159.711 22.2708 160.083 22.3047C160.456 22.3047 160.811 22.3893 161.15 22.5586C161.522 22.7279 161.776 22.9818 161.911 23.3203L168.919 39.2148L175.114 17.1758L175.368 16.8203C175.571 16.5495 175.791 16.2956 176.028 16.0586C176.299 15.7878 176.587 15.5677 176.892 15.3984C177.196 15.2292 177.484 15.2292 177.755 15.3984C177.823 15.5339 177.857 15.8385 177.857 16.3125C177.857 16.7526 177.823 17.0404 177.755 17.1758C177.687 17.4466 177.467 18.0898 177.095 19.1055C176.756 20.1211 176.384 21.2383 175.978 22.457C175.571 23.6419 175.199 24.7591 174.86 25.8086C174.522 26.8242 174.319 27.4674 174.251 27.7383C174.183 28.0091 174.065 28.5846 173.896 29.4648C173.76 30.3112 173.608 31.3099 173.439 32.4609C173.269 33.612 173.083 34.8307 172.88 36.1172C172.677 37.4036 172.474 38.6224 172.271 39.7734C172.101 40.9245 171.949 41.9232 171.814 42.7695C171.678 43.6159 171.594 44.1745 171.56 44.4453C171.492 44.8516 171.373 45.2917 171.204 45.7656C171.069 46.2396 170.866 46.6797 170.595 47.0859C170.324 47.4583 169.969 47.7461 169.528 47.9492C169.122 48.1523 168.631 48.1693 168.056 48C167.92 47.5599 167.683 46.8828 167.345 45.9688C167.04 45.0208 166.685 43.9714 166.278 42.8203C165.872 41.6693 165.449 40.4505 165.009 39.1641C164.569 37.8776 164.146 36.6589 163.739 35.5078C163.333 34.3568 162.961 33.3242 162.622 32.4102C162.318 31.4961 162.081 30.819 161.911 30.3789ZM188.535 47.1367C187.113 46.0195 185.979 44.7161 185.133 43.2266C184.32 41.7031 183.694 40.0781 183.254 38.3516C183.05 38.5208 182.746 38.707 182.34 38.9102C181.933 39.1133 181.51 39.2826 181.07 39.418C180.664 39.5534 180.258 39.6549 179.851 39.7227C179.445 39.7565 179.14 39.7057 178.937 39.5703C178.768 39.4349 178.717 39.2148 178.785 38.9102C178.886 38.5716 179.208 38.0807 179.75 37.4375C179.817 37.3359 180.021 37.1159 180.359 36.7773C180.731 36.4388 181.121 36.0833 181.527 35.7109C181.933 35.3047 182.306 34.9323 182.644 34.5938C182.983 34.2214 183.186 33.9844 183.254 33.8828C183.626 33.0365 183.846 32.1055 183.914 31.0898C184.015 30.0742 184.066 29.0247 184.066 27.9414C184.1 26.8242 184.168 25.724 184.269 24.6406C184.371 23.5573 184.625 22.5417 185.031 21.5938C185.268 21.0521 185.708 20.3919 186.351 19.6133C187.028 18.8008 187.773 18.0221 188.586 17.2773C189.432 16.5326 190.278 15.8724 191.125 15.2969C192.005 14.6875 192.75 14.3151 193.359 14.1797C194.002 14.0443 194.459 14.1966 194.73 14.6367C195.035 15.0768 195.035 15.9232 194.73 17.1758C194.358 18.6654 193.782 20.1211 193.004 21.543C192.259 22.931 191.48 24.319 190.668 25.707C189.855 27.0612 189.077 28.4154 188.332 29.7695C187.621 31.1237 187.113 32.4948 186.808 33.8828C186.639 34.6276 186.554 35.5417 186.554 36.625C186.554 37.6745 186.673 38.724 186.91 39.7734C187.147 40.8229 187.536 41.7878 188.078 42.668C188.619 43.5143 189.364 44.1068 190.312 44.4453C191.396 44.8516 192.479 44.9531 193.562 44.75C194.646 44.5469 195.695 44.1576 196.711 43.582C197.76 43.0065 198.759 42.2956 199.707 41.4492C200.655 40.569 201.535 39.6719 202.347 38.7578C203.16 37.8438 203.888 36.9635 204.531 36.1172C205.174 35.237 205.716 34.4922 206.156 33.8828L207.019 34.7969C207.256 35 207.104 35.5755 206.562 36.5234C206.054 37.4714 205.293 38.5547 204.277 39.7734C203.295 40.9583 202.127 42.1771 200.773 43.4297C199.419 44.6823 198.014 45.7318 196.558 46.5781C195.136 47.4245 193.715 47.9492 192.293 48.1523C190.905 48.3555 189.652 48.0169 188.535 47.1367ZM186.808 25.0469C186.774 25.2161 186.741 25.5208 186.707 25.9609C186.707 26.3672 186.707 26.8073 186.707 27.2812C186.707 27.7552 186.707 28.1953 186.707 28.6016C186.741 29.0078 186.774 29.2956 186.808 29.4648C187.892 27.6029 188.907 25.6224 189.855 23.5234C190.803 21.4245 191.548 19.3086 192.09 17.1758C191.311 17.4466 190.6 17.8698 189.957 18.4453C189.347 18.987 188.823 19.6302 188.383 20.375C187.942 21.0859 187.587 21.8477 187.316 22.6602C187.079 23.4727 186.91 24.2682 186.808 25.0469ZM208.049 47.4414C207.507 48.5586 207.05 49.1172 206.678 49.1172C206.306 49.151 205.984 48.7786 205.713 48C205.476 47.2552 205.273 46.1888 205.104 44.8008C204.968 43.4128 204.867 41.8724 204.799 40.1797C204.765 38.487 204.765 36.7096 204.799 34.8477C204.833 32.9857 204.884 31.1914 204.951 29.4648C205.053 27.7383 205.171 26.1641 205.307 24.7422C205.442 23.2865 205.578 22.1523 205.713 21.3398C205.882 20.4935 206.052 20.0365 206.221 19.9688C206.39 19.901 206.559 20.3581 206.729 21.3398C207.812 20.5273 208.98 19.7656 210.233 19.0547C211.485 18.3099 212.772 17.7005 214.092 17.2266C215.446 16.7188 216.8 16.3971 218.155 16.2617C219.543 16.1263 220.88 16.2448 222.166 16.6172C222.302 17.0573 222.319 17.5651 222.217 18.1406C222.115 18.7161 221.794 19.0885 221.252 19.2578C220.711 19.1562 220 19.1055 219.119 19.1055C218.239 19.1055 217.308 19.1732 216.326 19.3086C215.345 19.444 214.363 19.6641 213.381 19.9688C212.399 20.2734 211.502 20.6797 210.69 21.1875C209.911 21.6615 209.268 22.2539 208.76 22.9648C208.286 23.6419 208.049 24.4544 208.049 25.4023V47.4414Z" fill="#131814"/>
<path d="M226.751 47.1367C226.446 46.5612 226.361 45.9518 226.497 45.3086C226.632 44.6315 226.903 44.0052 227.309 43.4297C227.716 42.8542 228.207 42.3633 228.782 41.957C229.358 41.5169 229.95 41.263 230.559 41.1953C231.203 41.1276 231.812 41.2799 232.387 41.6523C232.963 41.9909 233.437 42.6341 233.809 43.582C234.046 44.1576 234.063 44.7331 233.86 45.3086C233.691 45.8503 233.386 46.3411 232.946 46.7812C232.506 47.1875 231.981 47.543 231.372 47.8477C230.762 48.1185 230.153 48.2878 229.544 48.3555C228.968 48.4232 228.41 48.3555 227.868 48.1523C227.36 47.9831 226.988 47.6445 226.751 47.1367Z" fill="#77A068"/>
</svg>
